# xmcd CD database file
#
# Track frame offsets:
#	150
#	14987
#	54152
#	129121
#	199274
#	230544
#
# Disc length: 3908 seconds
#
# Revision: 0
# Processed by: cddbd v1.5.2PL0 Copyright (c) Steve Scherf et al.
# Submitted via: CDex 1.70beta2
#
DISCID=4b0f4206
DTITLE=Gerald Cleaver/William Parker/Craig Taborn - Farmers by Nature
DYEAR=2008
DGENRE=Jazz
TTITLE0=Korteh Khah
TTITLE1=The Night
TTITLE2=Cranes
TTITLE3=Not Unlike Number 10
TTITLE4=In Trees
TTITLE5=Fieda Mytlie
EXTD=YEAR: 2008
EXTT0=
EXTT1=
EXTT2=
EXTT3=
EXTT4=
EXTT5=
PLAYORDER=
